<svg width="12" height="11" viewBox="0 0 12 11" fill="none" xmlns="http://www.w3.org/2000/svg">
<path d="M8.80684 7.11096C9.53304 6.20246 9.85829 5.07609 9.71754 3.95717C9.57678 2.83826 8.9804 1.80933 8.04769 1.07624C7.11499 0.343145 5.91476 -0.0400504 4.68712 0.0033169C3.45949 0.0466842 2.29498 0.513416 1.42657 1.31014C0.558166 2.10686 0.0499094 3.17481 0.00348477 4.30033C-0.0429399 5.42586 0.375891 6.52595 1.17619 7.38052C1.97648 8.23509 3.09922 8.78112 4.31978 8.90936C5.54034 9.0376 6.76871 8.73861 7.75913 8.07218H7.75838C7.78088 8.09969 7.80488 8.12581 7.83188 8.15125L10.7193 10.7984C10.8599 10.9274 11.0507 10.9999 11.2496 11C11.4486 11.0001 11.6394 10.9277 11.7801 10.7987C11.9208 10.6698 11.9999 10.4949 12 10.3125C12.0001 10.1301 11.9211 9.95519 11.7805 9.82618L8.89309 7.17903C8.86628 7.15415 8.83744 7.13116 8.80684 7.11027V7.11096ZM9.00034 4.46794C9.00034 4.96455 8.89364 5.4563 8.68635 5.91511C8.47906 6.37392 8.17522 6.7908 7.7922 7.14196C7.40917 7.49312 6.95445 7.77167 6.454 7.96172C5.95355 8.15176 5.41717 8.24958 4.87549 8.24958C4.33381 8.24958 3.79743 8.15176 3.29698 7.96172C2.79653 7.77167 2.34181 7.49312 1.95878 7.14196C1.57576 6.7908 1.27192 6.37392 1.06463 5.91511C0.857338 5.4563 0.750645 4.96455 0.750645 4.46794C0.750645 3.46498 1.18523 2.50311 1.95878 1.79391C2.73234 1.08472 3.78151 0.686297 4.87549 0.686297C5.96947 0.686297 7.01864 1.08472 7.7922 1.79391C8.56575 2.50311 9.00034 3.46498 9.00034 4.46794Z" fill="black"/>
</svg>
